<?xml version="1.0" encoding="UTF-8" standalone="no"?>
<svg
   xmlns:dc="http://purl.org/dc/elements/1.1/"
   xmlns:cc="http://creativecommons.org/ns#"
   xmlns:rdf="http://www.w3.org/1999/02/22-rdf-syntax-ns#"
   xmlns:svg="http://www.w3.org/2000/svg"
   xmlns="http://www.w3.org/2000/svg"
   xmlns:xlink="http://www.w3.org/1999/xlink"
   xmlns:sodipodi="http://sodipodi.sourceforge.net/DTD/sodipodi-0.dtd"
   xmlns:inkscape="http://www.inkscape.org/namespaces/inkscape"
   version="1.1"
   preserveAspectRatio="xMidYMid meet"
   viewBox="0 0 400 400"
   width="100"
   height="100"
   id="svg36"
   sodipodi:docname="shoping.svg"
   inkscape:version="0.92.4 (5da689c313, 2019-01-14)">
  <metadata
     id="metadata40">
    <rdf:RDF>
      <cc:Work
         rdf:about="">
        <dc:format>image/svg+xml</dc:format>
        <dc:type
           rdf:resource="http://purl.org/dc/dcmitype/StillImage" />
      </cc:Work>
    </rdf:RDF>
  </metadata>
  <sodipodi:namedview
     pagecolor="#ffffff"
     bordercolor="#666666"
     borderopacity="1"
     objecttolerance="10"
     gridtolerance="10"
     guidetolerance="10"
     inkscape:pageopacity="0"
     inkscape:pageshadow="2"
     inkscape:window-width="640"
     inkscape:window-height="480"
     id="namedview38"
     showgrid="false"
     inkscape:zoom="1.18"
     inkscape:cx="3.3898305"
     inkscape:cy="100"
     inkscape:window-x="372"
     inkscape:window-y="20"
     inkscape:window-maximized="0"
     inkscape:current-layer="svg36" />
  <defs
     id="defs6">
    <path
       d="M236.67 519.54C236.67 533.33 225.46 544.54 211.67 544.54C197.87 544.54 186.67 533.33 186.67 519.54C186.67 505.74 197.87 494.54 211.67 494.54C225.46 494.54 236.67 505.74 236.67 519.54Z"
       id="c1LdOiJBsE" />
    <path
       d="M387.96 519.54C387.96 533.33 376.76 544.54 362.96 544.54C349.17 544.54 337.96 533.33 337.96 519.54C337.96 505.74 349.17 494.54 362.96 494.54C376.76 494.54 387.96 505.74 387.96 519.54Z"
       id="ddtvMecQj" />
    <path
       d="M170.99 258.63L146.88 258.63C141.08 255.38 138.19 248.8 138.19 238.89C138.19 228.98 141.08 222.4 146.88 219.14C161.95 219.14 172.33 219.14 178.01 219.14C183.68 219.14 189.36 224.62 195.04 235.57C199.22 252.12 201.94 264.25 203.2 271.97C203.69 274.98 395.8 275.48 397.98 275.48C403.66 275.48 406 280.69 405 291.13C396.65 376.68 391.92 424.15 390.82 433.54C389.72 442.93 386.76 447.1 381.95 446.06L197.96 446.06L170.99 258.63Z"
       id="d2TjHw0em7" />
    <path
       d="M219.91 446.22L225.5 474.66C312.17 474.66 358.5 474.66 364.5 474.66C370.5 474.66 373.5 478.33 373.5 485.66L369.15 504.16L209 504.16L197.83 446.22L219.91 446.22Z"
       id="e3pLmunGXZ" />
  </defs>
  <g
     id="g34"
     transform="translate(-132.88136,-216.94915)">
    <g
       id="g32">
      <g
         id="g10">
        <use
           xlink:href="#c1LdOiJBsE"
           id="use8"
           style="opacity:1;fill:#020202;fill-opacity:1"
           x="0"
           y="0"
           width="100%"
           height="100%" />
      </g>
      <g
         id="g14">
        <use
           xlink:href="#ddtvMecQj"
           id="use12"
           style="opacity:1;fill:#000000;fill-opacity:1"
           x="0"
           y="0"
           width="100%"
           height="100%" />
      </g>
      <g
         id="g22">
        <use
           xlink:href="#d2TjHw0em7"
           id="use16"
           style="opacity:1;fill:#000000;fill-opacity:1"
           x="0"
           y="0"
           width="100%"
           height="100%" />
        <g
           id="g20">
          <use
             xlink:href="#d2TjHw0em7"
             id="use18"
             style="opacity:1;fill-opacity:0;stroke:#000000;stroke-width:1;stroke-opacity:1"
             x="0"
             y="0"
             width="100%"
             height="100%" />
        </g>
      </g>
      <g
         id="g30">
        <use
           xlink:href="#e3pLmunGXZ"
           id="use24"
           style="opacity:1;fill:#000000;fill-opacity:1"
           x="0"
           y="0"
           width="100%"
           height="100%" />
        <g
           id="g28">
          <use
             xlink:href="#e3pLmunGXZ"
             id="use26"
             style="opacity:1;fill-opacity:0;stroke:#000000;stroke-width:1;stroke-opacity:1"
             x="0"
             y="0"
             width="100%"
             height="100%" />
        </g>
      </g>
    </g>
  </g>
</svg>
